<svg xmlns="http://www.w3.org/2000/svg" viewBox="-50 -50 100 100" width="64" height="64">
  <rect x="-50" y="-50" width="100" height="100" rx="22" fill="#05060e"/>
  <g stroke="#e6b664" stroke-width="2.2" stroke-linecap="round" fill="none">
    <g transform="rotate(0)"><path d="M0 6 L0 -34 M0 -16 L-11 -28 M0 -16 L11 -28 M0 -26 L-6 -33 M0 -26 L6 -33"/></g>
    <g transform="rotate(120)"><path d="M0 6 L0 -34 M0 -16 L-11 -28 M0 -16 L11 -28 M0 -26 L-6 -33 M0 -26 L6 -33"/></g>
    <g transform="rotate(240)"><path d="M0 6 L0 -34 M0 -16 L-11 -28 M0 -16 L11 -28 M0 -26 L-6 -33 M0 -26 L6 -33"/></g>
  </g>
  <circle cx="0" cy="6" r="3.4" fill="#f0cf95"/>
</svg>
